<?xml version="1.0" standalone="no"?><!DOCTYPE svg PUBLIC "-//W3C//DTD SVG 1.1//EN" "http://www.w3.org/Graphics/SVG/1.1/DTD/svg11.dtd"><svg t="1756425208016" class="icon" viewBox="0 0 1024 1024" version="1.1" xmlns="http://www.w3.org/2000/svg" p-id="10536" xmlns:xlink="http://www.w3.org/1999/xlink" width="200" height="200"><path d="M768 1024H256a64 64 0 0 1-64-64V384a149.504 149.504 0 0 1 149.333333-149.333333h341.333334a149.504 149.504 0 0 1 149.333333 149.333333v576a64 64 0 0 1-64 64zM341.333333 277.333333a106.794667 106.794667 0 0 0-106.666666 106.666667v576a21.333333 21.333333 0 0 0 21.333333 21.333333h512a21.333333 21.333333 0 0 0 21.333333-21.333333V384a106.794667 106.794667 0 0 0-106.666666-106.666667z" fill="#ffffff" p-id="10537"></path><path d="M874.666667 1024h-106.666667v-42.666667h106.666667a64 64 0 0 0 64-64v-192a64 64 0 0 0-64-64h-64v-42.666666h64a106.794667 106.794667 0 0 1 106.666666 106.666666v192a106.794667 106.794667 0 0 1-106.666666 106.666667zM256 1024H149.333333a106.794667 106.794667 0 0 1-106.666666-106.666667v-192a106.794667 106.794667 0 0 1 106.666666-106.666666h64v42.666666H149.333333a64 64 0 0 0-64 64v192a64 64 0 0 0 64 64h106.666667zM768 597.333333H256a64 64 0 0 1-64-64v-21.333333h42.666667v21.333333a21.333333 21.333333 0 0 0 21.333333 21.333334h512a21.333333 21.333333 0 0 0 21.333333-21.333334v-21.333333h42.666667v21.333333a64 64 0 0 1-64 64z" fill="#ffffff" p-id="10538"></path><path d="M810.666667 746.666667h149.333333v42.666666h-149.333333zM64 746.666667h149.333333v42.666666H64zM682.666667 512H341.333333a64 64 0 0 1-64-64v-106.666667h42.666667v106.666667a21.333333 21.333333 0 0 0 21.333333 21.333333h341.333334a21.333333 21.333333 0 0 0 21.333333-21.333333v-106.666667h42.666667v106.666667a64 64 0 0 1-64 64zM768 277.333333H256a64 64 0 0 1-64-64V85.333333a64 64 0 0 1 64-64h85.333333v42.666667h-85.333333a21.333333 21.333333 0 0 0-21.333333 21.333333v128a21.333333 21.333333 0 0 0 21.333333 21.333334h512a21.333333 21.333333 0 0 0 21.333333-21.333334V85.333333a21.333333 21.333333 0 0 0-21.333333-21.333333h-85.333333V21.333333h85.333333a64 64 0 0 1 64 64v128a64 64 0 0 1-64 64z" fill="#ffffff" p-id="10539"></path><path d="M448 256h-42.666667V42.666667h-42.666666v213.333333h-42.666667V21.333333a21.333333 21.333333 0 0 1 21.333333-21.333333h85.333334a21.333333 21.333333 0 0 1 21.333333 21.333333zM704 256h-42.666667V42.666667h-42.666666v213.333333h-42.666667V21.333333a21.333333 21.333333 0 0 1 21.333333-21.333333h85.333334a21.333333 21.333333 0 0 1 21.333333 21.333333z" fill="#ffffff" p-id="10540"></path><path d="M426.666667 21.333333h170.666666v42.666667h-170.666666zM362.666667 810.666667a21.333333 21.333333 0 0 1-15.082667-6.250667l-64-64A21.333333 21.333333 0 0 1 277.333333 725.333333v-149.333333h42.666667v140.501333l42.666667 42.666667 42.666666-42.666667V576h42.666667v149.333333a21.333333 21.333333 0 0 1-6.250667 15.082667l-64 64A21.333333 21.333333 0 0 1 362.666667 810.666667zM661.333333 810.666667a21.333333 21.333333 0 0 1-15.082666-6.250667l-64-64A21.333333 21.333333 0 0 1 576 725.333333v-149.333333h42.666667v140.501333l42.666666 42.666667 42.666667-42.666667V576h42.666667v149.333333a21.333333 21.333333 0 0 1-6.250667 15.082667l-64 64A21.333333 21.333333 0 0 1 661.333333 810.666667z" fill="#ffffff" p-id="10541"></path><path d="M341.333333 661.333333h42.666667v42.666667h-42.666667zM640 661.333333h42.666667v42.666667h-42.666667zM341.333333 853.333333h42.666667v149.333334h-42.666667zM426.666667 704h170.666666v42.666667h-170.666666zM640 853.333333h42.666667v149.333334h-42.666667z" fill="#ffffff" p-id="10542"></path></svg>