<?xml version="1.0" standalone="no"?><!DOCTYPE svg PUBLIC "-//W3C//DTD SVG 1.1//EN" "http://www.w3.org/Graphics/SVG/1.1/DTD/svg11.dtd"><svg t="1756425556372" class="icon" viewBox="0 0 1024 1024" version="1.1" xmlns="http://www.w3.org/2000/svg" p-id="23632" xmlns:xlink="http://www.w3.org/1999/xlink" width="200" height="200"><path d="M972.794035 402.433735h-90.110783c-8.703882-18.431751-20.479724-56.31924-35.839516-83.454873L910.330879 256.003712a51.199309 51.199309 0 0 0 0-71.679032l-72.703019-71.16704a51.199309 51.199309 0 0 0-72.703018 0l-59.903192 63.999136c-27.135634-15.359793-65.023122-27.135634-83.454873-35.839516V51.206477A57.855219 57.855219 0 0 0 563.199565 0.007168H460.800947a57.855219 57.855219 0 0 0-58.367212 51.199309v90.110783c-18.431751 8.703882-56.31924 20.479724-83.454873 35.839516L256.003712 113.669633a51.199309 51.199309 0 0 0-71.679032 0L113.15764 186.372652a51.199309 51.199309 0 0 0 0 72.703018l63.999136 59.903192c-15.359793 27.135634-27.135634 65.023122-35.839516 83.454873H51.206477A57.855219 57.855219 0 0 0 0.007168 460.800947v102.398618a57.855219 57.855219 0 0 0 51.199309 58.367212h90.110783c8.703882 18.431751 20.479724 56.31924 35.839516 83.454873L113.669634 767.9968a51.199309 51.199309 0 0 0 0 71.679032l72.703018 72.191026a51.199309 51.199309 0 0 0 72.703019 0l59.903191-63.487143c27.135634 15.359793 65.023122 27.135634 83.454873 35.839516V972.794035A57.855219 57.855219 0 0 0 460.800947 1023.993344h102.398618a57.855219 57.855219 0 0 0 58.367212-51.199309v-90.110783c18.431751-8.703882 56.31924-20.479724 83.454873-35.839516L767.9968 910.330879a51.199309 51.199309 0 0 0 71.679032 0l72.191026-72.703019a51.199309 51.199309 0 0 0 0-72.703018l-63.487143-59.903192c15.359793-27.135634 27.135634-65.023122 35.839516-83.454873H972.794035A57.855219 57.855219 0 0 0 1023.993344 563.199565V460.800947a57.855219 57.855219 0 0 0-51.199309-58.367212z m-460.793779 340.475404A230.908883 230.908883 0 1 1 742.909139 512.000256 230.908883 230.908883 0 0 1 512.000256 742.909139z m0 0" fill="#ffffff" p-id="23633"></path></svg>